# xmcd
#
# Track frame offsets: 
#        150
#        11253
#        24777
#        41924
#        56835
#        68225
#        82079
#        95945
#        109325
#        120921
#        139659
#        155748
#        166882
#        180568
#        197642
#        217031
#        229438
#        246155
#        256474
#        263189
#        277034
#        289842
#        308048
#        328802
#
# Disc length: 4574 seconds
#
# Revision: 0
# Processed by: cddbd v1.5.2PL0 Copyright (c) Steve Scherf et al.
# Submitted via: ExactAudioCopy v0.95b4
#
DISCID=6b11dc18
DTITLE=Various Artist - Thick Syrup - Arkansas Compilation
DYEAR=1900
DGENRE=
TTITLE0=Two Spines - Dalace Pallas
TTITLE1=Smoke Up Johnny - Just One Night
TTITLE2=Les Attaques - Again
TTITLE3=Justin Carr - Man of My Kind
TTITLE4=American Princes - Stolen Blues
TTITLE5=Fits and Starts - Dancers of Wealth
TTITLE6=Stacy Mackey - Bowery
TTITLE7=Isaac Alexander - Future Feels Fine
TTITLE8=Tel Aviv - History
TTITLE9=Sugar and the Raw - Middle Ground
TTITLE10=Bryan Frazier - Love is an Orange Tree
TTITLE11=Clicking Beetle Bad Omen Band - Beestings
TTITLE12=San Antokyo - Guilty Pilots
TTITLE13=Sara Thomas - Free Land
TTITLE14=Ho-Hum - So Nice
TTITLE15=The Good Fear - Lowdown Adventure
TTITLE16=Browningham - Award Winning Poetry
TTITLE17=Ben Nichols - Dog Day Night
TTITLE18=Crisco Kids - You're Really Hot
TTITLE19=The Moving Front - Salvation Game
TTITLE20=Kevin Kerby - Dip it in Shellac
TTITLE21=The Contingencies - 10\\27\\04
TTITLE22=Pants - Angelina
TTITLE23=An A+ Setup - What Do We Need the King For?
EXTD=
EXTT0=
EXTT1=
EXTT2=
EXTT3=
EXTT4=
EXTT5=
EXTT6=
EXTT7=
EXTT8=
EXTT9=
EXTT10=
EXTT11=
EXTT12=
EXTT13=
EXTT14=
EXTT15=
EXTT16=
EXTT17=
EXTT18=
EXTT19=
EXTT20=
EXTT21=
EXTT22=
EXTT23=
PLAYORDER=
